<?xml version="1.0" encoding="iso-8859-1"?>
<!-- Generator: Adobe Illustrator 16.0.0, SVG Export Plug-In . SVG Version: 6.00 Build 0)  -->
<!DOCTYPE svg PUBLIC "-//W3C//DTD SVG 1.1//EN" "http://www.w3.org/Graphics/SVG/1.1/DTD/svg11.dtd">
<svg version="1.1" id="Capa_1" xmlns="http://www.w3.org/2000/svg" xmlns:xlink="http://www.w3.org/1999/xlink" x="0px" y="0px"
	 width="92px" height="92px" viewBox="0 0 92 92" style="enable-background:new 0 0 92 92;" xml:space="preserve">
<g>
	<g>
		<path d="M0,67.425h26.313V22.318H0V67.425z M4.508,37.079c0-1.702,0.432-2.434,2.133-2.434h15.537v4.067L11.176,58.484H4.707
			l9.436-16.704c0.9-1.601,1.199-2.134,0-2.134h-3.568c-0.467,0-0.732,0.267-0.732,0.735v1.298H4.508V37.079z"/>
		<path d="M32.984,67.425h26.313V22.318H32.984V67.425z M37.492,37.079c0-1.702,0.434-2.434,2.133-2.434h15.537v4.067L44.16,58.484
			h-6.469l9.438-16.704c0.898-1.601,1.199-2.134,0-2.134h-3.57c-0.467,0-0.732,0.267-0.732,0.735v1.298h-5.334L37.492,37.079
			L37.492,37.079z"/>
		<path d="M65.688,67.425H92V22.318H65.688V67.425z M70.195,37.079c0-1.702,0.434-2.434,2.133-2.434h15.537v4.067L76.863,58.484
			h-6.469l9.438-16.704c0.898-1.601,1.199-2.134,0-2.134h-3.57c-0.467,0-0.732,0.267-0.732,0.735v1.298h-5.334V37.079L70.195,37.079
			z"/>
		<path d="M0,87.348h4.539c0.121-1.226,0.643-1.769,2.102-1.769h15.537v1.769h4.135V73.253H0V87.348z"/>
		<path d="M32.984,87.348h4.539c0.121-1.226,0.645-1.769,2.102-1.769h15.537v1.769h4.135V73.253H32.984V87.348z"/>
		<path d="M65.688,87.348h4.539c0.121-1.226,0.646-1.769,2.103-1.769h15.537v1.769H92V73.253H65.688V87.348z"/>
		<polygon points="11.176,7.738 4.707,7.738 6.451,4.652 0,4.652 0,16.68 26.313,16.68 26.313,4.652 12.893,4.652 		"/>
		<polygon points="44.16,7.738 37.691,7.738 39.436,4.652 32.984,4.652 32.984,16.68 59.297,16.68 59.297,4.652 45.877,4.652 		"/>
		<polygon points="78.58,4.652 76.863,7.738 70.395,7.738 72.139,4.652 65.688,4.652 65.688,16.68 92,16.68 92,4.652 		"/>
	</g>
</g>
<g>
</g>
<g>
</g>
<g>
</g>
<g>
</g>
<g>
</g>
<g>
</g>
<g>
</g>
<g>
</g>
<g>
</g>
<g>
</g>
<g>
</g>
<g>
</g>
<g>
</g>
<g>
</g>
<g>
</g>
</svg>
